<?xml version="1.0" encoding="UTF-8"?>
<svg xmlns="http://www.w3.org/2000/svg" xmlns:xlink="http://www.w3.org/1999/xlink" width="2081.0162353515625" height="814"><defs><style type="text/css"><![CDATA[@import url("https://atlas.mindmup.com/_resources/22/fonts.css")]]></style></defs><rect width="100%" height="100%" fill="#FFFFFF"/><g transform="translate(713.0069828033447,626.997688293457)" style="fill:none;"><g transform="translate(-22,-79)"><path d="M158,54q10,0 10,-10v0q0,-10 10,-10h396" stroke="#707070" stroke-width="1" stroke-linecap="round"/><path d="M574.0092525482178,34.00231170654297 H681.0092525482178" stroke="#707070" stroke-width="1" stroke-linecap="round"/></g><g transform="translate(552.0092525482178,-275.99768829345703)"><path d="M107,231q10,0 10,-10v-162q0,-10 10,-10" stroke="#707070" stroke-width="1" stroke-linecap="round"/><path d="M127,49 H279" stroke="#707070" stroke-width="1" stroke-linecap="round"/></g><g transform="translate(679.0092525482178,-455.99768829345703)"><path d="M152,229q10,0 10,-10v-160q0,-10 10,-10" stroke="#707070" stroke-width="1" stroke-linecap="round"/><path d="M172,49 H324" stroke="#707070" stroke-width="1" stroke-linecap="round"/></g><g transform="translate(851.0092525482178,-518.997688293457)"><path d="M152,112q10,0 10,-10v-64q0,-10 10,-10" stroke="#707070" stroke-width="1" stroke-linecap="round"/><path d="M172,28 H315" stroke="#707070" stroke-width="1" stroke-linecap="round"/></g><g transform="translate(1023.0092525482178,-596.997688293457)"><path d="M143,106q10,0 10,-10v-37q0,-10 10,-10" stroke="#707070" stroke-width="1" stroke-linecap="round"/><path d="M163,49 H315" stroke="#707070" stroke-width="1" stroke-linecap="round"/></g><g transform="translate(1023.0092525482178,-528.997688293457)"><path d="M143,38l10,0 l9,11h1" stroke="#707070" stroke-width="1" stroke-linecap="round"/><path d="M163,49 H315" stroke="#707070" stroke-width="1" stroke-linecap="round"/></g><g transform="translate(1023.0092525482178,-518.997688293457)"><path d="M143,28q10,0 10,10v59q0,10 10,10" stroke="#707070" stroke-width="1" stroke-linecap="round"/><path d="M163,107 H315" stroke="#707070" stroke-width="1" stroke-linecap="round"/></g><g transform="translate(851.0092525482178,-455.99768829345703)"><path d="M152,49q10,0 10,10v43q0,10 10,10" stroke="#707070" stroke-width="1" stroke-linecap="round"/><path d="M172,112 H324" stroke="#707070" stroke-width="1" stroke-linecap="round"/></g><g transform="translate(679.0092525482178,-324.99768829345703)"><path d="M152,98q10,0 10,-10v-29q0,-10 10,-10" stroke="#707070" stroke-width="1" stroke-linecap="round"/><path d="M172,49 H324" stroke="#707070" stroke-width="1" stroke-linecap="round"/></g><g transform="translate(679.0092525482178,-275.99768829345703)"><path d="M152,49l10,0 l9,19h1" stroke="#707070" stroke-width="1" stroke-linecap="round"/><path d="M172,68 H324" stroke="#707070" stroke-width="1" stroke-linecap="round"/></g><g transform="translate(679.0092525482178,-275.99768829345703)"><path d="M152,49q10,0 10,10v46q0,10 10,10" stroke="#707070" stroke-width="1" stroke-linecap="round"/><path d="M172,115 H296" stroke="#707070" stroke-width="1" stroke-linecap="round"/></g><g transform="translate(679.0092525482178,-275.99768829345703)"><path d="M152,49q10,0 10,10v93q0,10 10,10" stroke="#707070" stroke-width="1" stroke-linecap="round"/><path d="M172,162 H287" stroke="#707070" stroke-width="1" stroke-linecap="round"/></g><g transform="translate(679.0092525482178,-275.99768829345703)"><path d="M152,49q10,0 10,10v161q0,10 10,10" stroke="#707070" stroke-width="1" stroke-linecap="round"/><path d="M172,230 H324" stroke="#707070" stroke-width="1" stroke-linecap="round"/></g><g transform="translate(552.0092525482178,-72.99768829345703)"><path d="M107,28q10,0 10,10v47q0,10 10,10" stroke="#707070" stroke-width="1" stroke-linecap="round"/><path d="M127,95 H279" stroke="#707070" stroke-width="1" stroke-linecap="round"/></g><g transform="translate(552.0092525482178,-72.99768829345703)"><path d="M107,28q10,0 10,10v115q0,10 10,10" stroke="#707070" stroke-width="1" stroke-linecap="round"/><path d="M127,163 H279" stroke="#707070" stroke-width="1" stroke-linecap="round"/></g><g transform="translate(552.0092525482178,-72.99768829345703)"><path d="M107,28q10,0 10,10v183q0,10 10,10" stroke="#707070" stroke-width="1" stroke-linecap="round"/><path d="M127,231 H279" stroke="#707070" stroke-width="1" stroke-linecap="round"/></g><g transform="translate(-496.0046634674072,-306.9861526489258)"><path d="M474.0046634674072,281.9861526489258q-10,0 -10,-10v-234q0,-10 -10,-10h-349" stroke="#707070" stroke-width="1" stroke-linecap="round"/><path d="M0,28 H105" stroke="#707070" stroke-width="1" stroke-linecap="round"/></g><g transform="translate(-668.0046634674072,-384.9861526489258)"><path d="M172,106q-10,0 -10,-10v-37q0,-10 -10,-10" stroke="#707070" stroke-width="1" stroke-linecap="round"/><path d="M0,49 H152" stroke="#707070" stroke-width="1" stroke-linecap="round"/></g><g transform="translate(-668.0046634674072,-316.9861526489258)"><path d="M172,38l-10,0 l-9,11h-1" stroke="#707070" stroke-width="1" stroke-linecap="round"/><path d="M0,49 H152" stroke="#707070" stroke-width="1" stroke-linecap="round"/></g><g transform="translate(-668.0046634674072,-306.9861526489258)"><path d="M172,28q-10,0 -10,10v59q0,10 -10,10" stroke="#707070" stroke-width="1" stroke-linecap="round"/><path d="M0,107 H152" stroke="#707070" stroke-width="1" stroke-linecap="round"/></g><g transform="translate(-552.0069828033447,-79)"><path d="M530.0069828033447,54q-10,0 -10,10v85q0,10 -10,10h-419" stroke="#707070" stroke-width="1" stroke-linecap="round"/><path d="M0,159.00460052490234 H91" stroke="#707070" stroke-width="1" stroke-linecap="round"/></g><g transform="translate(-642.0069828033447,5.004600524902344)"><path d="M90,75q-10,0 -10,-10v-27q0,-10 -10,-10" stroke="#707070" stroke-width="1" stroke-linecap="round"/><path d="M0,28 H70" stroke="#707070" stroke-width="1" stroke-linecap="round"/></g><g transform="translate(-683.0069828033447,52.004600524902344)"><path d="M131,28l-10,0 l-9,0h-1" stroke="#707070" stroke-width="1" stroke-linecap="round"/><path d="M0,28 H111" stroke="#707070" stroke-width="1" stroke-linecap="round"/></g><g transform="translate(-672.0069828033447,52.004600524902344)"><path d="M120,28q-10,0 -10,10v27q0,10 -10,10" stroke="#707070" stroke-width="1" stroke-linecap="round"/><path d="M0,75 H100" stroke="#707070" stroke-width="1" stroke-linecap="round"/></g><g transform="translate(-22,-79)"><rect x="0" y="0" width="158" height="108" border="1" rx="10" ry="10" style="fill:#22AAE0;"/><text font-family="NotoSans, 'Helvetica Neue', Roboto, Helvetica, Arial, sans-serif" font-size="16" font-weight="light" lengthAdjust="spacingAndGlyphs" style="fill:#EEEEEE;"><tspan y="22" x="152" text-anchor="end" textLength="90" font-size="14">الشهادة المهنية</tspan><tspan y="46" x="152" text-anchor="end" textLength="121" font-size="14">الاحترافية في تقديم</tspan><tspan y="70" x="152" text-anchor="end" textLength="95" font-size="14">التعليم والتدريب</tspan><tspan y="94" x="152" text-anchor="end" textLength="109" font-size="14">الإلكتروني (OTT)</tspan></text></g><g transform="translate(-496.0046634674072,-306.9861526489258)"><rect x="0" y="0" width="105" height="27" border="1" rx="3" ry="3" style="fill:#FFFFFF;"/><text font-family="NotoSans, 'Helvetica Neue', Roboto, Helvetica, Arial, sans-serif" font-size="14" font-weight="light" lengthAdjust="spacingAndGlyphs" style="fill:#4F4F4F;"><tspan y="17" x="102" text-anchor="end" textLength="99" font-size="12">الهدف من الشهادة</tspan></text></g><g transform="translate(-668.0046634674072,-384.9861526489258)"><rect x="0" y="0" width="152" height="48" border="1" rx="3" ry="3" style="fill:#FFFFFF;"/><text font-family="NotoSans, 'Helvetica Neue', Roboto, Helvetica, Arial, sans-serif" font-size="14" font-weight="light" lengthAdjust="spacingAndGlyphs" style="fill:#4F4F4F;"><tspan y="17" x="149" text-anchor="end" textLength="117" font-size="12">تقديم التعليم والتدريب</tspan><tspan y="38" x="149" text-anchor="end" textLength="51" font-size="12">الاحترافي</tspan></text></g><g transform="translate(-668.0046634674072,-316.9861526489258)"><rect x="0" y="0" width="152" height="48" border="1" rx="3" ry="3" style="fill:#FFFFFF;"/><text font-family="NotoSans, 'Helvetica Neue', Roboto, Helvetica, Arial, sans-serif" font-size="14" font-weight="light" lengthAdjust="spacingAndGlyphs" style="fill:#4F4F4F;"><tspan y="17" x="149" text-anchor="end" textLength="128" font-size="12">إتاحة فرص تعلم مبتكرة</tspan><tspan y="38" x="149" text-anchor="end" textLength="30" font-size="12">ومرنة</tspan></text></g><g transform="translate(-668.0046634674072,-248.98615264892578)"><rect x="0" y="0" width="152" height="48" border="1" rx="3" ry="3" style="fill:#FFFFFF;"/><text font-family="NotoSans, 'Helvetica Neue', Roboto, Helvetica, Arial, sans-serif" font-size="14" font-weight="light" lengthAdjust="spacingAndGlyphs" style="fill:#4F4F4F;"><tspan y="17" x="149" text-anchor="end" textLength="120" font-size="12">تلبية الاحتياجات الفردية</tspan><tspan y="38" x="149" text-anchor="end" textLength="39" font-size="12">للمتعلم</tspan></text></g><g transform="translate(-552.0069828033447,52.004600524902344)"><rect x="0" y="0" width="91" height="27" border="1" rx="3" ry="3" style="fill:#FFFFFF;"/><text font-family="NotoSans, 'Helvetica Neue', Roboto, Helvetica, Arial, sans-serif" font-size="14" font-weight="light" lengthAdjust="spacingAndGlyphs" style="fill:#4F4F4F;"><tspan y="17" x="88" text-anchor="end" textLength="85" font-size="12">مكونات الشهادة</tspan></text></g><g transform="translate(-642.0069828033447,5.004600524902344)"><rect x="0" y="0" width="70" height="27" border="1" rx="3" ry="3" style="fill:#FFFFFF;"/><text font-family="NotoSans, 'Helvetica Neue', Roboto, Helvetica, Arial, sans-serif" font-size="14" font-weight="light" lengthAdjust="spacingAndGlyphs" style="fill:#4F4F4F;"><tspan y="17" x="67" text-anchor="end" textLength="64" font-size="12">ست مجالات</tspan></text></g><g transform="translate(-683.0069828033447,52.004600524902344)"><rect x="0" y="0" width="111" height="27" border="1" rx="3" ry="3" style="fill:#FFFFFF;"/><text font-family="NotoSans, 'Helvetica Neue', Roboto, Helvetica, Arial, sans-serif" font-size="14" font-weight="light" lengthAdjust="spacingAndGlyphs" style="fill:#4F4F4F;"><tspan y="17" x="108" text-anchor="end" textLength="105" font-size="12">18 كفاية لكل مجال</tspan></text></g><g transform="translate(-672.0069828033447,99.00460052490234)"><rect x="0" y="0" width="100" height="27" border="1" rx="3" ry="3" style="fill:#FFFFFF;"/><text font-family="NotoSans, 'Helvetica Neue', Roboto, Helvetica, Arial, sans-serif" font-size="14" font-weight="light" lengthAdjust="spacingAndGlyphs" style="fill:#4F4F4F;"><tspan y="17" x="97" text-anchor="end" textLength="94" font-size="12">75 مؤشر أساسي</tspan></text></g><g transform="translate(552.0092525482178,-72.99768829345703)"><rect x="0" y="0" width="107" height="27" border="1" rx="3" ry="3" style="fill:#FFFFFF;"/><text font-family="NotoSans, 'Helvetica Neue', Roboto, Helvetica, Arial, sans-serif" font-size="14" font-weight="light" lengthAdjust="spacingAndGlyphs" style="fill:#4F4F4F;"><tspan y="17" x="104" text-anchor="end" textLength="101" font-size="12">المجالات والكفايات</tspan></text></g><g transform="translate(679.0092525482178,-275.99768829345703)"><rect x="0" y="0" width="152" height="48" border="1" rx="3" ry="3" style="fill:#FFFFFF;"/><text font-family="NotoSans, 'Helvetica Neue', Roboto, Helvetica, Arial, sans-serif" font-size="14" font-weight="light" lengthAdjust="spacingAndGlyphs" style="fill:#4F4F4F;"><tspan y="17" x="149" text-anchor="end" textLength="110" font-size="12">المجال الأول: الإلمام</tspan><tspan y="38" x="149" text-anchor="end" textLength="80" font-size="12">الرقمي (20%)</tspan></text></g><g transform="translate(851.0092525482178,-455.99768829345703)"><rect x="0" y="0" width="152" height="48" border="1" rx="3" ry="3" style="fill:#FFFFFF;"/><text font-family="NotoSans, 'Helvetica Neue', Roboto, Helvetica, Arial, sans-serif" font-size="14" font-weight="light" lengthAdjust="spacingAndGlyphs" style="fill:#4F4F4F;"><tspan y="17" x="149" text-anchor="end" textLength="129" font-size="12">كفاية الأدوات والتطبيقات</tspan><tspan y="38" x="149" text-anchor="end" textLength="38" font-size="12">الرقمية</tspan></text></g><g transform="translate(1023.0092525482178,-518.997688293457)"><rect x="0" y="0" width="143" height="27" border="1" rx="3" ry="3" style="fill:#FFFFFF;"/><text font-family="NotoSans, 'Helvetica Neue', Roboto, Helvetica, Arial, sans-serif" font-size="14" font-weight="light" lengthAdjust="spacingAndGlyphs" style="fill:#4F4F4F;"><tspan y="17" x="140" text-anchor="end" textLength="137" font-size="12">تصنيف الأدوات والتطبيقات</tspan></text></g><g transform="translate(1186.0092525482178,-596.997688293457)"><rect x="0" y="0" width="152" height="48" border="1" rx="3" ry="3" style="fill:#FFFFFF;"/><text font-family="NotoSans, 'Helvetica Neue', Roboto, Helvetica, Arial, sans-serif" font-size="14" font-weight="light" lengthAdjust="spacingAndGlyphs" style="fill:#4F4F4F;"><tspan y="17" x="149" text-anchor="end" textLength="126" font-size="12">قابلية الاستخدام (سهولة</tspan><tspan y="38" x="149" text-anchor="end" textLength="97" font-size="12">التسجيل والدخول)</tspan></text></g><g transform="translate(1186.0092525482178,-528.997688293457)"><rect x="0" y="0" width="152" height="48" border="1" rx="3" ry="3" style="fill:#FFFFFF;"/><text font-family="NotoSans, 'Helvetica Neue', Roboto, Helvetica, Arial, sans-serif" font-size="14" font-weight="light" lengthAdjust="spacingAndGlyphs" style="fill:#4F4F4F;"><tspan y="17" x="149" text-anchor="end" textLength="114" font-size="12">قابلية المرونة (تفاعل،</tspan><tspan y="38" x="149" text-anchor="end" textLength="102" font-size="12">إضافة/تعديل، ربط)</tspan></text></g><g transform="translate(1186.0092525482178,-460.99768829345703)"><rect x="0" y="0" width="152" height="48" border="1" rx="3" ry="3" style="fill:#FFFFFF;"/><text font-family="NotoSans, 'Helvetica Neue', Roboto, Helvetica, Arial, sans-serif" font-size="14" font-weight="light" lengthAdjust="spacingAndGlyphs" style="fill:#4F4F4F;"><tspan y="17" x="149" text-anchor="end" textLength="136" font-size="12">قابلية التفاعل (بين المعلم</tspan><tspan y="38" x="149" text-anchor="end" textLength="97" font-size="12">والمتعلم والأقران)</tspan></text></g><g transform="translate(1023.0092525482178,-392.99768829345703)"><rect x="0" y="0" width="152" height="48" border="1" rx="3" ry="3" style="fill:#FFFFFF;"/><text font-family="NotoSans, 'Helvetica Neue', Roboto, Helvetica, Arial, sans-serif" font-size="14" font-weight="light" lengthAdjust="spacingAndGlyphs" style="fill:#4F4F4F;"><tspan y="17" x="149" text-anchor="end" textLength="124" font-size="12">دمج الأدوات والتطبيقات</tspan><tspan y="38" x="149" text-anchor="end" textLength="38" font-size="12">الرقمية</tspan></text></g><g transform="translate(851.0092525482178,-324.99768829345703)"><rect x="0" y="0" width="152" height="48" border="1" rx="3" ry="3" style="fill:#FFFFFF;"/><text font-family="NotoSans, 'Helvetica Neue', Roboto, Helvetica, Arial, sans-serif" font-size="14" font-weight="light" lengthAdjust="spacingAndGlyphs" style="fill:#4F4F4F;"><tspan y="17" x="149" text-anchor="end" textLength="123" font-size="12">استخدام منصات التعليم</tspan><tspan y="38" x="149" text-anchor="end" textLength="54" font-size="12">الإلكتروني</tspan></text></g><g transform="translate(851.0092525482178,-256.99768829345703)"><rect x="0" y="0" width="152" height="48" border="1" rx="3" ry="3" style="fill:#FFFFFF;"/><text font-family="NotoSans, 'Helvetica Neue', Roboto, Helvetica, Arial, sans-serif" font-size="14" font-weight="light" lengthAdjust="spacingAndGlyphs" style="fill:#4F4F4F;"><tspan y="17" x="149" text-anchor="end" textLength="108" font-size="12">تقييم واختيار الأدوات</tspan><tspan y="38" x="149" text-anchor="end" textLength="97" font-size="12">والتطبيقات الرقمية</tspan></text></g><g transform="translate(851.0092525482178,-188.99768829345703)"><rect x="0" y="0" width="124" height="27" border="1" rx="3" ry="3" style="fill:#FFFFFF;"/><text font-family="NotoSans, 'Helvetica Neue', Roboto, Helvetica, Arial, sans-serif" font-size="14" font-weight="light" lengthAdjust="spacingAndGlyphs" style="fill:#4F4F4F;"><tspan y="17" x="121" text-anchor="end" textLength="118" font-size="12">كفاية المواطنة الرقمية</tspan></text></g><g transform="translate(851.0092525482178,-141.99768829345703)"><rect x="0" y="0" width="115" height="27" border="1" rx="3" ry="3" style="fill:#FFFFFF;"/><text font-family="NotoSans, 'Helvetica Neue', Roboto, Helvetica, Arial, sans-serif" font-size="14" font-weight="light" lengthAdjust="spacingAndGlyphs" style="fill:#4F4F4F;"><tspan y="17" x="112" text-anchor="end" textLength="109" font-size="12">كفاية الموارد الرقمية</tspan></text></g><g transform="translate(851.0092525482178,-94.99768829345703)"><rect x="0" y="0" width="152" height="48" border="1" rx="3" ry="3" style="fill:#FFFFFF;"/><text font-family="NotoSans, 'Helvetica Neue', Roboto, Helvetica, Arial, sans-serif" font-size="14" font-weight="light" lengthAdjust="spacingAndGlyphs" style="fill:#4F4F4F;"><tspan y="17" x="149" text-anchor="end" textLength="130" font-size="12">كفاية استكشاف الأخطاء</tspan><tspan y="38" x="149" text-anchor="end" textLength="90" font-size="12">الرقمية وإصلاحها</tspan></text></g><g transform="translate(679.0092525482178,-26.99768829345703)"><rect x="0" y="0" width="152" height="48" border="1" rx="3" ry="3" style="fill:#FFFFFF;"/><text font-family="NotoSans, 'Helvetica Neue', Roboto, Helvetica, Arial, sans-serif" font-size="14" font-weight="light" lengthAdjust="spacingAndGlyphs" style="fill:#4F4F4F;"><tspan y="17" x="149" text-anchor="end" textLength="113" font-size="12">المجال الثاني: القيادة</tspan><tspan y="38" x="3" text-anchor="start" textLength="37">(13%)</tspan></text></g><g transform="translate(679.0092525482178,41.00231170654297)"><rect x="0" y="0" width="152" height="48" border="1" rx="3" ry="3" style="fill:#FFFFFF;"/><text font-family="NotoSans, 'Helvetica Neue', Roboto, Helvetica, Arial, sans-serif" font-size="14" font-weight="light" lengthAdjust="spacingAndGlyphs" style="fill:#4F4F4F;"><tspan y="17" x="149" text-anchor="end" textLength="133" font-size="12">المجال الثالث: علم أصول</tspan><tspan y="38" x="149" text-anchor="end" textLength="85" font-size="12">التدريس (20%)</tspan></text></g><g transform="translate(679.0092525482178,109.00231170654297)"><rect x="0" y="0" width="152" height="48" border="1" rx="3" ry="3" style="fill:#FFFFFF;"/><text font-family="NotoSans, 'Helvetica Neue', Roboto, Helvetica, Arial, sans-serif" font-size="14" font-weight="light" lengthAdjust="spacingAndGlyphs" style="fill:#4F4F4F;"><tspan y="17" x="149" text-anchor="end" textLength="110" font-size="12">المجال الرابع: التقييم</tspan><tspan y="38" x="3" text-anchor="start" textLength="37">(20%)</tspan></text></g></g></svg>